<svg width="21" height="21" viewBox="0 0 21 21" fill="none" xmlns="http://www.w3.org/2000/svg">
<path d="M19.3569 17.2659C18.883 16.1433 18.1952 15.1235 17.3318 14.2634C16.4711 13.4009 15.4515 12.7132 14.3293 12.2383C14.3193 12.2333 14.3092 12.2308 14.2992 12.2257C15.8645 11.0951 16.8821 9.25338 16.8821 7.17549C16.8821 3.73328 14.0931 0.944336 10.6509 0.944336C7.2087 0.944336 4.41976 3.73328 4.41976 7.17549C4.41976 9.25338 5.43734 11.0951 7.00267 12.2283C6.99262 12.2333 6.98257 12.2358 6.97252 12.2408C5.84689 12.7157 4.83684 13.3966 3.97001 14.2659C3.10747 15.1267 2.41977 16.1463 1.94488 17.2685C1.47835 18.3671 1.22675 19.545 1.20368 20.7383C1.20301 20.7651 1.20771 20.7918 1.21751 20.8168C1.22731 20.8417 1.24201 20.8645 1.26074 20.8837C1.27947 20.9029 1.30186 20.9182 1.32658 20.9286C1.3513 20.939 1.37786 20.9443 1.40468 20.9443H2.91222C3.02277 20.9443 3.11071 20.8564 3.11322 20.7484C3.16348 18.8087 3.94237 16.9921 5.31925 15.6152C6.74388 14.1906 8.63584 13.4066 10.6509 13.4066C12.666 13.4066 14.5579 14.1906 15.9826 15.6152C17.3595 16.9921 18.1383 18.8087 18.1886 20.7484C18.1911 20.8589 18.2791 20.9443 18.3896 20.9443H19.8971C19.924 20.9443 19.9505 20.939 19.9752 20.9286C20 20.9182 20.0224 20.9029 20.0411 20.8837C20.0598 20.8645 20.0745 20.8417 20.0843 20.8168C20.0941 20.7918 20.0988 20.7651 20.0981 20.7383C20.073 19.5373 19.8243 18.369 19.3569 17.2659ZM10.6509 11.4971C9.49765 11.4971 8.41222 11.0474 7.59564 10.2308C6.77905 9.41419 6.3293 8.32876 6.3293 7.17549C6.3293 6.02223 6.77905 4.9368 7.59564 4.12022C8.41222 3.30363 9.49765 2.85388 10.6509 2.85388C11.8042 2.85388 12.8896 3.30363 13.7062 4.12022C14.5228 4.9368 14.9725 6.02223 14.9725 7.17549C14.9725 8.32876 14.5228 9.41419 13.7062 10.2308C12.8896 11.0474 11.8042 11.4971 10.6509 11.4971Z" fill="#787878"/>
</svg>
