<svg width="21" height="21" viewBox="0 0 21 21" fill="none" xmlns="http://www.w3.org/2000/svg">
<path d="M10.651 0.723145C7.91363 0.723145 5.68662 2.95015 5.68662 5.6875V8.66611H4.69375C3.59861 8.66611 2.70801 9.55671 2.70801 10.6518V18.5948C2.70801 19.6899 3.59861 20.5806 4.69375 20.5806H16.6082C17.7033 20.5806 18.5939 19.6899 18.5939 18.5948V10.6518C18.5939 9.55671 17.7033 8.66611 16.6082 8.66611H15.6153V5.6875C15.6153 2.95015 13.3883 0.723145 10.651 0.723145ZM16.6082 10.6518L16.6102 18.5948H4.69375V10.6518H16.6082ZM7.67236 8.66611V5.6875C7.67236 4.04529 9.00876 2.70889 10.651 2.70889C12.2932 2.70889 13.6296 4.04529 13.6296 5.6875V8.66611H7.67236Z" fill="#787878"/>
</svg>
